<svg width="57" height="45" viewBox="0 0 57 45" fill="none" xmlns="http://www.w3.org/2000/svg">
<path d="M7.09616 2H49.9038C52.7184 2 55 4.29454 55 7.125V37.875C55 40.7055 52.7184 43 49.9038 43H7.09616C4.28163 43 2 40.7055 2 37.875V7.125C2 4.29454 4.28163 2 7.09616 2Z" stroke="black" stroke-width="4" stroke-linecap="round" stroke-linejoin="round"/>
<path d="M7.09616 2H49.9038C52.7184 2 55 4.29454 55 7.125V37.875C55 40.7055 52.7184 43 49.9038 43H7.09616C4.28163 43 2 40.7055 2 37.875V7.125C2 4.29454 4.28163 2 7.09616 2Z" stroke="white" stroke-opacity="0.2" stroke-width="4" stroke-linecap="round" stroke-linejoin="round"/>
<path d="M46 10L28.5 25L11 10" stroke="black" stroke-width="4" stroke-linecap="round" stroke-linejoin="round"/>
<path d="M46 10L28.5 25L11 10" stroke="white" stroke-opacity="0.2" stroke-width="4" stroke-linecap="round" stroke-linejoin="round"/>
</svg>
